<?xml version="1.0" encoding="utf-8"?>
<!-- Generator: Adobe Illustrator 27.5.0, SVG Export Plug-In . SVG Version: 6.00 Build 0)  -->
<svg version="1.1" xmlns="http://www.w3.org/2000/svg" xmlns:xlink="http://www.w3.org/1999/xlink" x="0px" y="0px"
	 viewBox="0 0 3710 3710" style="enable-background:new 0 0 3710 3710;" xml:space="preserve">
<g id="Background">
	<g>
		<g>
			<rect style="fill:#FFFFFF;" width="3710" height="3710"/>
		</g>
	</g>
</g>
<g id="Illustration">
	<g>
		<linearGradient id="SVGID_1_" gradientUnits="userSpaceOnUse" x1="3469.668" y1="3292.7576" x2="1394.8069" y2="1477.2555">
			<stop  offset="0" style="stop-color:#DAE3FE"/>
			<stop  offset="1" style="stop-color:#E9EFFD"/>
		</linearGradient>
		<path style="fill:url(#SVGID_1_);" d="M3117.05,2349.886c-268.156,631.398-982.46,985.112-1601.907,889.699
			c-100.796-15.526-377.132-61.774-621.79-279.958c-470.982-420.02-571.705-1251.715-191.778-1837.83
			c276.52-426.589,772.211-668.408,1243.214-656.312c101.454,2.605,490.269,18.663,831.969,300.422
			c50.189,41.385,160.886,139.727,260.65,295.739C3271.674,1427.995,3291.81,1938.396,3117.05,2349.886z"/>
		<g>
			<path style="fill:#91B3FA;" d="M3210.912,1522.753c-0.333-17.7-14.776-32.595-32.48-32.595h-669.169
				c-17.941,0-33.53,15.986-33.53,33.927v1603.57c0,8.63,3.957,16.906,10.068,23.002c6.112,6.094,14.658,9.506,23.289,9.483
				l699.4-1.91c8.706-0.024,17.102-3.541,23.192-9.764c6.09-6.221,9.459-14.988,9.296-23.692L3210.912,1522.753z"/>
			<g style="opacity:0.5;">
				<g>
					<path style="fill:#FFFFFF;" d="M2700.75,1553.92h-172.901c-5.143,0-3.893,8.977-3.893,14.477v31.296
						c0,5.499-1.25,14.664,3.893,14.664h172.901c5.141,0,7.872-9.164,7.872-14.664v-31.296
						C2708.622,1562.897,2705.891,1553.92,2700.75,1553.92z"/>
					<path style="fill:#FFFFFF;" d="M2932.171,1553.92h-172.901c-5.142,0-7,8.977-7,14.477v31.296c0,5.499,1.858,14.664,7,14.664
						h172.901c5.141,0,4.765-9.164,4.765-14.664v-31.296C2936.936,1562.897,2937.313,1553.92,2932.171,1553.92z"/>
					<path style="fill:#FFFFFF;" d="M3163.593,1553.92h-172.901c-5.143,0-13.465,8.977-13.465,14.477v31.296
						c0,5.499,8.322,14.664,13.465,14.664h172.901c5.141,0,11.73-9.164,11.73-14.664v-31.296
						C3175.323,1562.897,3168.734,1553.92,3163.593,1553.92z"/>
				</g>
				<g>
					<path style="fill:#FFFFFF;" d="M2700.75,1688.222h-172.901c-5.143,0-3.893-1.565-3.893,3.935v31.295
						c0,5.499-1.25,15.133,3.893,15.133h172.901c5.141,0,7.872-9.634,7.872-15.133v-31.295
						C2708.622,1686.657,2705.891,1688.222,2700.75,1688.222z"/>
					<path style="fill:#FFFFFF;" d="M2932.171,1688.222h-172.901c-5.142,0-7-1.565-7,3.935v31.295c0,5.499,1.858,15.133,7,15.133
						h172.901c5.141,0,4.765-9.634,4.765-15.133v-31.295C2936.936,1686.657,2937.313,1688.222,2932.171,1688.222z"/>
					<path style="fill:#FFFFFF;" d="M3163.593,1688.222h-172.901c-5.143,0-13.465-1.565-13.465,3.935v31.295
						c0,5.499,8.322,15.133,13.465,15.133h172.901c5.141,0,11.73-9.634,11.73-15.133v-31.295
						C3175.323,1686.657,3168.734,1688.222,3163.593,1688.222z"/>
				</g>
				<g>
					<path style="fill:#FFFFFF;" d="M2700.75,1805.737h-172.901c-5.143,0-3.893,4.681-3.893,10.18v31.295
						c0,5.5-1.25,12.245,3.893,12.245h172.901c5.141,0,7.872-6.746,7.872-12.245v-31.295
						C2708.622,1810.418,2705.891,1805.737,2700.75,1805.737z"/>
					<path style="fill:#FFFFFF;" d="M2932.171,1805.737h-172.901c-5.142,0-7,4.681-7,10.18v31.295c0,5.5,1.858,12.245,7,12.245
						h172.901c5.141,0,4.765-6.746,4.765-12.245v-31.295C2936.936,1810.418,2937.313,1805.737,2932.171,1805.737z"/>
					<path style="fill:#FFFFFF;" d="M3163.593,1805.737h-172.901c-5.143,0-13.465,4.681-13.465,10.18v31.295
						c0,5.5,8.322,12.245,13.465,12.245h172.901c5.141,0,11.73-6.746,11.73-12.245v-31.295
						C3175.323,1810.418,3168.734,1805.737,3163.593,1805.737z"/>
				</g>
				<g>
					<path style="fill:#FFFFFF;" d="M2700.75,1933.324h-172.901c-5.143,0-3.893,0.854-3.893,6.353v31.296
						c0,5.5-1.25,12.715,3.893,12.715h172.901c5.141,0,7.872-7.215,7.872-12.715v-31.296
						C2708.622,1934.178,2705.891,1933.324,2700.75,1933.324z"/>
					<path style="fill:#FFFFFF;" d="M2932.171,1933.324h-172.901c-5.142,0-7,0.854-7,6.353v31.296c0,5.5,1.858,12.715,7,12.715
						h172.901c5.141,0,4.765-7.215,4.765-12.715v-31.296C2936.936,1934.178,2937.313,1933.324,2932.171,1933.324z"/>
					<path style="fill:#FFFFFF;" d="M3163.593,1933.324h-172.901c-5.143,0-13.465,0.854-13.465,6.353v31.296
						c0,5.5,8.322,12.715,13.465,12.715h172.901c5.141,0,11.73-7.215,11.73-12.715v-31.296
						C3175.323,1934.178,3168.734,1933.324,3163.593,1933.324z"/>
				</g>
				<g>
					<path style="fill:#FFFFFF;" d="M2700.75,2050.839h-172.901c-5.143,0-3.893,7.099-3.893,12.598v31.296
						c0,5.5-1.25,9.827,3.893,9.827h172.901c5.141,0,7.872-4.327,7.872-9.827v-31.296
						C2708.622,2057.938,2705.891,2050.839,2700.75,2050.839z"/>
					<path style="fill:#FFFFFF;" d="M2932.171,2050.839h-172.901c-5.142,0-7,7.099-7,12.598v31.296c0,5.5,1.858,9.827,7,9.827
						h172.901c5.141,0,4.765-4.327,4.765-9.827v-31.296C2936.936,2057.938,2937.313,2050.839,2932.171,2050.839z"/>
					<path style="fill:#FFFFFF;" d="M3163.593,2050.839h-172.901c-5.143,0-13.465,7.099-13.465,12.598v31.296
						c0,5.5,8.322,9.827,13.465,9.827h172.901c5.141,0,11.73-4.327,11.73-9.827v-31.296
						C3175.323,2057.938,3168.734,2050.839,3163.593,2050.839z"/>
				</g>
				<g>
					<path style="fill:#FFFFFF;" d="M2700.75,2178.427h-172.901c-5.143,0-3.893,3.272-3.893,8.771v31.296
						c0,5.499-1.25,10.296,3.893,10.296h172.901c5.141,0,7.872-4.797,7.872-10.296v-31.296
						C2708.622,2181.698,2705.891,2178.427,2700.75,2178.427z"/>
					<path style="fill:#FFFFFF;" d="M2932.171,2178.427h-172.901c-5.142,0-7,3.272-7,8.771v31.296c0,5.499,1.858,10.296,7,10.296
						h172.901c5.141,0,4.765-4.797,4.765-10.296v-31.296C2936.936,2181.698,2937.313,2178.427,2932.171,2178.427z"/>
					<path style="fill:#FFFFFF;" d="M3163.593,2178.427h-172.901c-5.143,0-13.465,3.272-13.465,8.771v31.296
						c0,5.499,8.322,10.296,13.465,10.296h172.901c5.141,0,11.73-4.797,11.73-10.296v-31.296
						C3175.323,2181.698,3168.734,2178.427,3163.593,2178.427z"/>
				</g>
				<g>
					<path style="fill:#FFFFFF;" d="M2700.75,2295.941h-172.901c-5.143,0-3.893,9.517-3.893,15.017v31.295
						c0,5.5-1.25,14.125,3.893,14.125h172.901c5.141,0,7.872-8.624,7.872-14.125v-31.295
						C2708.622,2305.458,2705.891,2295.941,2700.75,2295.941z"/>
					<path style="fill:#FFFFFF;" d="M2932.171,2295.941h-172.901c-5.142,0-7,9.517-7,15.017v31.295c0,5.5,1.858,14.125,7,14.125
						h172.901c5.141,0,4.765-8.624,4.765-14.125v-31.295C2936.936,2305.458,2937.313,2295.941,2932.171,2295.941z"/>
					<path style="fill:#FFFFFF;" d="M3163.593,2295.941h-172.901c-5.143,0-13.465,9.517-13.465,15.017v31.295
						c0,5.5,8.322,14.125,13.465,14.125h172.901c5.141,0,11.73-8.624,11.73-14.125v-31.295
						C3175.323,2305.458,3168.734,2295.941,3163.593,2295.941z"/>
				</g>
				<g>
					<path style="fill:#FFFFFF;" d="M2700.75,2423.529h-172.901c-5.143,0-3.893,5.69-3.893,11.189v31.295
						c0,5.5-1.25,17.951,3.893,17.951h172.901c5.141,0,7.872-12.451,7.872-17.951v-31.295
						C2708.622,2429.219,2705.891,2423.529,2700.75,2423.529z"/>
					<path style="fill:#FFFFFF;" d="M2932.171,2423.529h-172.901c-5.142,0-7,5.69-7,11.189v31.295c0,5.5,1.858,17.951,7,17.951
						h172.901c5.141,0,4.765-12.451,4.765-17.951v-31.295C2936.936,2429.219,2937.313,2423.529,2932.171,2423.529z"/>
					<path style="fill:#FFFFFF;" d="M3163.593,2423.529h-172.901c-5.143,0-13.465,5.69-13.465,11.189v31.295
						c0,5.5,8.322,17.951,13.465,17.951h172.901c5.141,0,11.73-12.451,11.73-17.951v-31.295
						C3175.323,2429.219,3168.734,2423.529,3163.593,2423.529z"/>
				</g>
				<g>
					<path style="fill:#FFFFFF;" d="M2700.75,2544.401h-172.901c-5.143,0-3.893,8.578-3.893,14.077v31.296
						c0,5.5-1.25,11.706,3.893,11.706h172.901c5.141,0,7.872-6.206,7.872-11.706v-31.296
						C2708.622,2552.979,2705.891,2544.401,2700.75,2544.401z"/>
					<path style="fill:#FFFFFF;" d="M2932.171,2544.401h-172.901c-5.142,0-7,8.578-7,14.077v31.296c0,5.5,1.858,11.706,7,11.706
						h172.901c5.141,0,4.765-6.206,4.765-11.706v-31.296C2936.936,2552.979,2937.313,2544.401,2932.171,2544.401z"/>
					<path style="fill:#FFFFFF;" d="M3163.593,2544.401h-172.901c-5.143,0-13.465,8.578-13.465,14.077v31.296
						c0,5.5,8.322,11.706,13.465,11.706h172.901c5.141,0,11.73-6.206,11.73-11.706v-31.296
						C3175.323,2552.979,3168.734,2544.401,3163.593,2544.401z"/>
				</g>
				<g>
					<path style="fill:#FFFFFF;" d="M2700.75,2675.346h-172.901c-5.143,0-3.893,1.393-3.893,6.892v31.296
						c0,5.5-1.25,15.533,3.893,15.533h172.901c5.141,0,7.872-10.033,7.872-15.533v-31.296
						C2708.622,2676.739,2705.891,2675.346,2700.75,2675.346z"/>
					<path style="fill:#FFFFFF;" d="M2932.171,2675.346h-172.901c-5.142,0-7,1.393-7,6.892v31.296c0,5.5,1.858,15.533,7,15.533
						h172.901c5.141,0,4.765-10.033,4.765-15.533v-31.296C2936.936,2676.739,2937.313,2675.346,2932.171,2675.346z"/>
					<path style="fill:#FFFFFF;" d="M3163.593,2675.346h-172.901c-5.143,0-13.465,1.393-13.465,6.892v31.296
						c0,5.5,8.322,15.533,13.465,15.533h172.901c5.141,0,11.73-10.033,11.73-15.533v-31.296
						C3175.323,2676.739,3168.734,2675.346,3163.593,2675.346z"/>
				</g>
				<g>
					<path style="fill:#FFFFFF;" d="M2700.75,2802.935h-172.901c-5.143,0-3.893-2.436-3.893,3.063v31.296
						c0,5.5-1.25,9.288,3.893,9.288h172.901c5.141,0,7.872-3.788,7.872-9.288v-31.296
						C2708.622,2800.5,2705.891,2802.935,2700.75,2802.935z"/>
					<path style="fill:#FFFFFF;" d="M2932.171,2802.935h-172.901c-5.142,0-7-2.436-7,3.063v31.296c0,5.5,1.858,9.288,7,9.288
						h172.901c5.141,0,4.765-3.788,4.765-9.288v-31.296C2936.936,2800.5,2937.313,2802.935,2932.171,2802.935z"/>
					<path style="fill:#FFFFFF;" d="M3163.593,2802.935h-172.901c-5.143,0-13.465-2.436-13.465,3.063v31.296
						c0,5.5,8.322,9.288,13.465,9.288h172.901c5.141,0,11.73-3.788,11.73-9.288v-31.296
						C3175.323,2800.5,3168.734,2802.935,3163.593,2802.935z"/>
				</g>
				<g>
					<path style="fill:#FFFFFF;" d="M2700.75,2920.448h-172.901c-5.143,0-3.893,3.812-3.893,9.31v31.296
						c0,5.5-1.25,13.115,3.893,13.115h172.901c5.141,0,7.872-7.615,7.872-13.115v-31.296
						C2708.622,2924.26,2705.891,2920.448,2700.75,2920.448z"/>
					<path style="fill:#FFFFFF;" d="M2932.171,2920.448h-172.901c-5.142,0-7,3.812-7,9.31v31.296c0,5.5,1.858,13.115,7,13.115
						h172.901c5.141,0,4.765-7.615,4.765-13.115v-31.296C2936.936,2924.26,2937.313,2920.448,2932.171,2920.448z"/>
					<path style="fill:#FFFFFF;" d="M3163.593,2920.448h-172.901c-5.143,0-13.465,3.812-13.465,9.31v31.296
						c0,5.5,8.322,13.115,13.465,13.115h172.901c5.141,0,11.73-7.615,11.73-13.115v-31.296
						C3175.323,2924.26,3168.734,2920.448,3163.593,2920.448z"/>
				</g>
			</g>
		</g>
		<g>
			<path style="fill:#BDD0FB;" d="M1136.173,2306.859c-121.946,29.966-284.9-97.297-341.906-241.613
				c-58.664-148.514,34.073-215.849,24.203-425.055c-11.212-237.651-136.417-268.076-232.184-584.888
				c-21.607-71.479-146.645-485.124-17.723-569.308c119.202-77.837,471.998,115.216,543.863,378.881
				c51.244,188.006-78.066,273.527-17.698,492.468c52.97,192.106,170.045,189.809,223.026,375.07
				C1382.255,1957.955,1296.29,2267.514,1136.173,2306.859z"/>
			<path style="fill:#7D97F4;" d="M1129.753,2364.833c21.985-257.536-59.954-649.797-132.565-933.514
				C918.576,1124.147,833.674,874.5,832.826,872.012l-10.107,3.451c0.848,2.482,85.635,251.799,164.144,558.578
				c72.395,282.892,154.106,673.854,132.248,929.885L1129.753,2364.833z"/>
		</g>
		<g>
			<path style="fill:#91B3FA;" d="M1135.967,3005.551c166.08-78.081,233.638-366.761,145.068-465.102
				c-59.845-66.447-152.161-2.905-235.862-72.669c-106.867-89.074-19.198-245.018-97.491-455.116
				c-66.628-178.796-236.886-352.365-341.748-322.467c-109.768,31.296-177.651,294.029-91.676,457.333
				c55.91,106.199,147.778,115.059,163.808,212.36c18.6,112.903-95.468,159.38-100.516,267.895
				C568.48,2822.709,916.254,3108.847,1135.967,3005.551z"/>
			<path style="fill:#7D97F4;" d="M1045.168,3076.475c0.97,0.04,1.963-0.133,2.913-0.548c3.357-1.463,4.892-5.369,3.429-8.724
				c-197.422-453.051-239.566-970.989-239.97-976.167c-0.283-3.651-3.477-6.383-7.122-6.095c-3.649,0.283-6.38,3.473-6.095,7.122
				c0.404,5.201,42.73,525.363,241.033,980.434C1040.405,3074.904,1042.71,3076.375,1045.168,3076.475z"/>
			<path style="fill:#F0F0F0;" d="M637.243,2217.594c0.68,0.028,1.375-0.164,1.972-0.588c1.422-1.02,1.751-2.997,0.733-4.419
				c-64.477-90.13-134.53-224.439-102.101-352.468c19.313-76.248,66.464-114.5,66.938-114.877c1.368-1.09,1.595-3.081,0.505-4.451
				c-1.091-1.37-3.085-1.597-4.452-0.504c-2.003,1.593-49.299,39.975-69.132,118.277c-18.229,71.964-15.14,192.441,103.089,357.706
				C635.385,2217.097,636.302,2217.555,637.243,2217.594z"/>
			<path style="fill:#F0F0F0;" d="M1152.214,2967.356c1.01,0.042,2.021-0.4,2.67-1.268
				c110.818-148.349,151.301-264.822,120.324-346.179c-27.54-72.333-103.876-88.706-104.644-88.865
				c-1.718-0.339-3.385,0.757-3.737,2.47c-0.35,1.71,0.753,3.387,2.467,3.739c0.734,0.151,73.769,15.91,100.023,84.989
				c30.096,79.197-10.111,193.606-119.507,340.053c-1.048,1.403-0.761,3.387,0.641,4.435
				C1150.982,2967.126,1151.598,2967.331,1152.214,2967.356z"/>
		</g>
		<g>
			<g>
				
					<linearGradient id="SVGID_00000049919036320800750530000007504795103140760711_" gradientUnits="userSpaceOnUse" x1="5050.3345" y1="862.6609" x2="1195.8479" y2="2138.5374">
					<stop  offset="0" style="stop-color:#09005D"/>
					<stop  offset="1" style="stop-color:#1A0F91"/>
				</linearGradient>
				<path style="fill:url(#SVGID_00000049919036320800750530000007504795103140760711_);" d="M1291.813,626.093l1350.631,39.177
					c129.09,3.744,232.261,80.724,236.2,176.237l86.16,2089.402c4.063,98.543-98.735,181.548-231.806,187.172l-1504.009,63.569
					c-143.327,6.059-263.176-79.591-259.921-185.751l67.218-2192.148C1039.401,702.128,1154.493,622.11,1291.813,626.093z"/>
				
					<linearGradient id="SVGID_00000119116863188140869930000001069856167375878541_" gradientUnits="userSpaceOnUse" x1="2866.5564" y1="1138.0934" x2="443.6494" y2="3913.6262" gradientTransform="matrix(0 1 1 0 237.246 -443.102)">
					<stop  offset="0" style="stop-color:#FF928E"/>
					<stop  offset="1" style="stop-color:#FE7062"/>
				</linearGradient>
				<path style="fill:url(#SVGID_00000119116863188140869930000001069856167375878541_);" d="M1346.346,717.77l1253.734,36.366
					c119.829,3.476,215.599,74.933,219.254,163.593l79.978,1939.504c3.772,91.474-91.651,168.523-215.176,173.744l-1396.107,59.009
					c-133.045,5.623-244.295-73.881-241.274-172.425l62.396-2034.878C1112.043,788.35,1218.878,714.072,1346.346,717.77z"/>
				<path style="opacity:0.2;fill:#FFFFFF;" d="M1386.231,779.56l1161.749,33.698c111.038,3.221,199.781,69.436,203.168,151.591
					l74.111,1797.204c3.495,84.762-84.928,156.16-199.39,160.997l-1293.677,54.679c-123.284,5.21-226.371-68.461-223.572-159.775
					l57.817-1885.581C1169.118,844.961,1268.115,776.133,1386.231,779.56z"/>
			</g>
		</g>
		<g>
			<g>
				
					<linearGradient id="SVGID_00000140717208407825350440000007530162816488423585_" gradientUnits="userSpaceOnUse" x1="1253.5918" y1="1865.8552" x2="3067.6208" y2="1865.8552">
					<stop  offset="0" style="stop-color:#4F52FF"/>
					<stop  offset="1" style="stop-color:#4042E2"/>
				</linearGradient>
				<path style="fill:url(#SVGID_00000140717208407825350440000007530162816488423585_);" d="M3030.607,3174.802H1290.606
					c-20.442,0-37.014-16.572-37.014-37.014V593.923c0-20.442,16.572-37.014,37.014-37.014h1740.001
					c20.442,0,37.014,16.572,37.014,37.014v2543.865C3067.621,3158.23,3051.049,3174.802,3030.607,3174.802z"/>
				<path style="fill:#91B3FA;" d="M2966.202,3113.692H1356.804c-20.442,0-37.014-16.572-37.014-37.014V663.085
					c0-20.442,16.572-37.014,37.014-37.014h1609.398c20.442,0,37.014,16.572,37.014,37.014v2413.593
					C3003.216,3097.12,2986.644,3113.692,2966.202,3113.692z"/>
				<g>
					<path style="fill:#BDD0FB;" d="M1282.215,1321.979c-2.781,0-5.036-2.256-5.036-5.036V730.989
						c0-75.804,61.672-137.473,137.477-137.473h443.618c2.781,0,5.036,2.256,5.036,5.036c0,2.781-2.256,5.036-5.036,5.036h-443.618
						c-70.25,0-127.404,57.151-127.404,127.401v585.954C1287.251,1319.723,1284.995,1321.979,1282.215,1321.979z"/>
					<path style="fill:#BDD0FB;" d="M1282.215,1818.016c-2.781,0-5.036-2.256-5.036-5.036v-404.603c0-2.78,2.256-5.036,5.036-5.036
						c2.78,0,5.036,2.256,5.036,5.036v404.603C1287.251,1815.761,1284.995,1818.016,1282.215,1818.016z"/>
				</g>
			</g>
			<g style="opacity:0.7;">
				<path style="fill:#FFFFFF;" d="M2216.578,922.896h-784.81c-5.906,0-10.693-4.788-10.693-10.693v-164.25
					c0-5.906,4.787-10.693,10.693-10.693h784.81c5.906,0,10.693,4.787,10.693,10.693v164.25
					C2227.271,918.109,2222.484,922.896,2216.578,922.896z"/>
				<path style="fill:#FFFFFF;" d="M1785.136,1316.938h-310.474c-3.7,0-6.699-2.999-6.699-6.699v-267.945
					c0-3.7,2.999-6.699,6.699-6.699h310.474c3.7,0,6.699,3,6.699,6.699v267.945
					C1791.836,1313.938,1788.836,1316.938,1785.136,1316.938z"/>
				<path style="fill:#FFFFFF;" d="M2861.942,1122.916h-979.697c-1.614,0-2.922-1.308-2.922-2.922v-81.477
					c0-1.614,1.308-2.922,2.922-2.922h979.697c1.614,0,2.922,1.308,2.922,2.922v81.477
					C2864.864,1121.607,2863.556,1122.916,2861.942,1122.916z"/>
				<path style="fill:#FFFFFF;" d="M2636.769,1251.726h-751.19c-3.455,0-6.256-2.801-6.256-6.256v-74.81
					c0-3.455,2.801-6.256,6.256-6.256h751.19c3.455,0,6.256,2.801,6.256,6.256v74.81
					C2643.024,1248.925,2640.223,1251.726,2636.769,1251.726z"/>
				<path style="fill:#FFFFFF;" d="M1780.226,1746.573h-310.474c-3.7,0-6.699-3-6.699-6.699v-267.945c0-3.7,2.999-6.699,6.699-6.699
					h310.474c3.7,0,6.699,2.999,6.699,6.699v267.945C1786.925,1743.573,1783.926,1746.573,1780.226,1746.573z"/>
				<path style="fill:#FFFFFF;" d="M2857.031,1552.551h-979.697c-1.614,0-2.922-1.308-2.922-2.922v-81.477
					c0-1.614,1.308-2.922,2.922-2.922h979.697c1.614,0,2.922,1.308,2.922,2.922v81.477
					C2859.953,1551.242,2858.645,1552.551,2857.031,1552.551z"/>
				<path style="fill:#FFFFFF;" d="M2631.858,1681.361h-751.19c-3.455,0-6.256-2.801-6.256-6.256v-74.81
					c0-3.455,2.801-6.256,6.256-6.256h751.19c3.455,0,6.256,2.801,6.256,6.256v74.81
					C2638.114,1678.56,2635.313,1681.361,2631.858,1681.361z"/>
				<path style="fill:#FFFFFF;" d="M1780.226,2142.011h-310.474c-3.7,0-6.699-3-6.699-6.699v-267.945c0-3.7,2.999-6.699,6.699-6.699
					h310.474c3.7,0,6.699,3,6.699,6.699v267.945C1786.925,2139.012,1783.926,2142.011,1780.226,2142.011z"/>
				<path style="fill:#FFFFFF;" d="M2857.031,1947.989h-979.697c-1.614,0-2.922-1.308-2.922-2.922v-81.477
					c0-1.614,1.308-2.922,2.922-2.922h979.697c1.614,0,2.922,1.308,2.922,2.922v81.477
					C2859.953,1946.681,2858.645,1947.989,2857.031,1947.989z"/>
				<path style="fill:#FFFFFF;" d="M2631.858,2076.8h-751.19c-3.455,0-6.256-2.801-6.256-6.256v-74.81
					c0-3.455,2.801-6.256,6.256-6.256h751.19c3.455,0,6.256,2.801,6.256,6.256v74.81
					C2638.114,2073.999,2635.313,2076.8,2631.858,2076.8z"/>
				<path style="fill:#FFFFFF;" d="M1780.226,2539.558h-310.474c-3.7,0-6.699-3-6.699-6.699v-267.945c0-3.7,2.999-6.699,6.699-6.699
					h310.474c3.7,0,6.699,3,6.699,6.699v267.945C1786.925,2536.559,1783.926,2539.558,1780.226,2539.558z"/>
				<path style="fill:#FFFFFF;" d="M2857.031,2345.536h-979.697c-1.614,0-2.922-1.308-2.922-2.922v-81.477
					c0-1.614,1.308-2.922,2.922-2.922h979.697c1.614,0,2.922,1.308,2.922,2.922v81.477
					C2859.953,2344.228,2858.645,2345.536,2857.031,2345.536z"/>
				<path style="fill:#FFFFFF;" d="M2631.858,2474.346h-751.19c-3.455,0-6.256-2.801-6.256-6.256v-74.81
					c0-3.455,2.801-6.256,6.256-6.256h751.19c3.455,0,6.256,2.801,6.256,6.256v74.81
					C2638.114,2471.546,2635.313,2474.346,2631.858,2474.346z"/>
				<path style="fill:#FFFFFF;" d="M1780.226,2934.997h-310.474c-3.7,0-6.699-3-6.699-6.699v-267.945c0-3.7,2.999-6.699,6.699-6.699
					h310.474c3.7,0,6.699,3,6.699,6.699v267.945C1786.925,2931.998,1783.926,2934.997,1780.226,2934.997z"/>
				<path style="fill:#FFFFFF;" d="M2857.031,2740.975h-979.697c-1.614,0-2.922-1.308-2.922-2.922v-81.477
					c0-1.614,1.308-2.922,2.922-2.922h979.697c1.614,0,2.922,1.308,2.922,2.922v81.477
					C2859.953,2739.667,2858.645,2740.975,2857.031,2740.975z"/>
				<path style="fill:#FFFFFF;" d="M2631.858,2869.785h-751.19c-3.455,0-6.256-2.801-6.256-6.256v-74.81
					c0-3.455,2.801-6.256,6.256-6.256h751.19c3.455,0,6.256,2.801,6.256,6.256v74.81
					C2638.114,2866.985,2635.313,2869.785,2631.858,2869.785z"/>
			</g>
		</g>
		<g>
			
				<linearGradient id="SVGID_00000084497020343343673100000000446424111138052790_" gradientUnits="userSpaceOnUse" x1="-1384.7604" y1="1400.1067" x2="-1401.7123" y2="2006.1227" gradientTransform="matrix(-1 0 0 1 1197.9395 0)">
				<stop  offset="0" style="stop-color:#A22B25"/>
				<stop  offset="1" style="stop-color:#C0423C"/>
			</linearGradient>
			<path style="fill:url(#SVGID_00000084497020343343673100000000446424111138052790_);" d="M2404.764,1604.981
				c0,0,6.831,297.309,319.438,349.447l56.12-55.402c0,0-270.696-92.037-341.16-284.376l15.052-102.003l-10.608-67.504
				L2404.764,1604.981z"/>
			<g>
				<circle style="fill:#FFFFFF;" cx="2303.13" cy="1155.418" r="401.056"/>
				
					<linearGradient id="SVGID_00000083800409210181332450000017901582167223004603_" gradientUnits="userSpaceOnUse" x1="3115.9746" y1="72.8501" x2="2773.5029" y2="529.4789">
					<stop  offset="0" style="stop-color:#FF928E"/>
					<stop  offset="1" style="stop-color:#FE7062"/>
				</linearGradient>
				
					<circle style="fill:url(#SVGID_00000083800409210181332450000017901582167223004603_);" cx="2306.095" cy="1152.69" r="357.012"/>
				<g>
					<path style="fill:#FFFFFF;" d="M2443.307,1394.219c-17.613-1.272-73.341-11.537-72.701-89.505l1.885-229.531
						c0.024-2.917-0.152-4.411-3.248-4.356l-189.296,3.407c-3.183,0.058-5.8,1.625-5.865,4.584l-0.27,12.262
						c-0.062,2.824,2.234,5.113,5.259,5.248c18.104,0.815,75.487,6.23,74.328,42.412c-1.385,43.147-3.625,220.855-3.625,220.855
						s-1.361,38.997-68.128,42.999c-3.21,0.192-5.25,2.764-5.314,5.816l-0.33,15.529c-0.066,3.103,1.347,5.556,4.607,5.414
						l262.303-11.443c3.136-0.137,7.344-2.785,7.353-5.824l0.035-12.714C2450.308,1396.585,2446.164,1394.426,2443.307,1394.219z"/>
					<path style="fill:#FFFFFF;" d="M2303.936,1021.684c46.581-0.668,84.364-36.292,84.672-79.336
						c0.306-42.787-36.567-77.175-82.635-77.039c-46.379,0.137-84.871,35.171-85.693,78.488
						C2219.454,987.379,2257.037,1022.357,2303.936,1021.684z"/>
				</g>
			</g>
			<g>
				
					<linearGradient id="SVGID_00000001630450782846632330000017640777822913761447_" gradientUnits="userSpaceOnUse" x1="578.7011" y1="2884.1152" x2="871.5818" y2="2884.1152" gradientTransform="matrix(1 0 0 1 2153.9587 0)">
					<stop  offset="0" style="stop-color:#A22B25"/>
					<stop  offset="1" style="stop-color:#C0423C"/>
				</linearGradient>
				<path style="fill:url(#SVGID_00000001630450782846632330000017640777822913761447_);" d="M2732.66,2613.743
					c0,0,156.675,341.475,238.875,482.913c0,0,16.326,88.995,0,116.981l-13.914,6.184l64.936-1.933c0,0,5.769-119.708,1.264-126.395
					c-4.506-6.687-13.516-6.248-13.516-6.248s-27.843-220.594-108.481-267.673l-78.147-269.163L2732.66,2613.743z"/>
				
					<linearGradient id="SVGID_00000055683898249173693850000015565124678270022564_" gradientUnits="userSpaceOnUse" x1="981.2735" y1="2229.1448" x2="836.23" y2="3171.9233" gradientTransform="matrix(1 0 0 1 2153.9587 0)">
					<stop  offset="0" style="stop-color:#09005D"/>
					<stop  offset="1" style="stop-color:#1A0F91"/>
				</linearGradient>
				<path style="fill:url(#SVGID_00000055683898249173693850000015565124678270022564_);" d="M2929.888,3236.586
					c-0.096,1.566,50.706,0.85,78.303,0.347c10.189-0.187,18.877-7.348,21.049-17.306l20.84-109.49
					c1.981-10.405-4.626-20.512-14.952-22.872l-11.633-2.659c0,0-16.595,22.764-11.371,44.197
					c5.224,21.432,9.872,76.95-3.328,83.419c-13.201,6.469-51.175,7.599-51.175,7.599S2930.757,3222.485,2929.888,3236.586z"/>
				
					<linearGradient id="SVGID_00000124842746456938891030000014500053636373908648_" gradientUnits="userSpaceOnUse" x1="677.734" y1="2181.9326" x2="532.6902" y2="3124.7129" gradientTransform="matrix(1 0 0 1 2153.9587 0)">
					<stop  offset="0" style="stop-color:#09005D"/>
					<stop  offset="1" style="stop-color:#1A0F91"/>
				</linearGradient>
				<path style="fill:url(#SVGID_00000124842746456938891030000014500053636373908648_);" d="M2587.518,3238.573
					c-5.138,2.928-3.019,10.773,2.895,10.713c46.182-0.464,149.667-1.925,158.862-5.749c11.872-4.937-4.327-47.598-21.374-62.037
					l-94.131,30.722L2587.518,3238.573z"/>
				
					<linearGradient id="SVGID_00000140701178850298574920000002068168796752675518_" gradientUnits="userSpaceOnUse" x1="421.4539" y1="2905.8928" x2="573.9415" y2="2905.8928" gradientTransform="matrix(1 0 0 1 2153.9587 0)">
					<stop  offset="0" style="stop-color:#A22B25"/>
					<stop  offset="1" style="stop-color:#C0423C"/>
				</linearGradient>
				<path style="fill:url(#SVGID_00000140701178850298574920000002068168796752675518_);" d="M2575.413,2591.964
					c0,0,84.132,489.795,112.774,585.338l-67.755,42.519c0,0,33.954-5.775,59.131-7.599c25.178-1.824,48.337-30.722,48.337-30.722
					l-8.117-12.947c0,0-25.39-487.128-19.209-542.442L2575.413,2591.964z"/>
				
					<linearGradient id="SVGID_00000114075596024394502180000003292945792102092435_" gradientUnits="userSpaceOnUse" x1="1032.2206" y1="2502.4541" x2="1364.2638" y2="2502.4541" gradientTransform="matrix(0.944 -0.3299 0.3299 0.944 381.5882 -264.0028)">
					<stop  offset="0" style="stop-color:#A22B25"/>
					<stop  offset="1" style="stop-color:#C0423C"/>
				</linearGradient>
				<path style="fill:url(#SVGID_00000114075596024394502180000003292945792102092435_);" d="M2228.531,1546.546
					c0,0,43.558,277.2,332.813,291.501l-10.697,138.665c0,0-280.797-4.288-347.142-380.245c-1.728-9.794-9.641-17.391-18.256-22.36
					l-59.22-34.156c-22.563-13.013-37.393-36.182-39.761-62.121l-2.202-24.109c-0.737-8.071,6.468-14.597,14.427-13.067l5.301,1.019
					c16.875,3.245,32.303,11.712,44.102,24.205l36.854,39.018c13.766,14.575,35.251,18.836,53.538,10.618l12.407-5.575
					L2228.531,1546.546z"/>
				
					<linearGradient id="SVGID_00000145030853964318936210000013365653730825153432_" gradientUnits="userSpaceOnUse" x1="3843.8169" y1="1077.1102" x2="3407.3337" y2="1406.1517">
					<stop  offset="0" style="stop-color:#FF928E"/>
					<stop  offset="1" style="stop-color:#FE7062"/>
				</linearGradient>
				<path style="fill:url(#SVGID_00000145030853964318936210000013365653730825153432_);" d="M2516.898,1815.406
					c38.808,10.762,170.283,45.348,252.361,43.935l-50.394,284.381l4.011,46.384l-164.306-0.737c0,0-46.253-107.419-82.746-160.974
					c-10.54-15.467-2.696-33.916,3.278-51.654l-8.207-5.464c-8.352-5.561-11.973-16.006-8.857-25.543l40.011-122.417
					C2504.126,1817.148,2510.624,1813.666,2516.898,1815.406z"/>
				
					<linearGradient id="SVGID_00000052070018410641053960000010181803915076512396_" gradientUnits="userSpaceOnUse" x1="1897.2964" y1="3833.3333" x2="2592.3823" y2="2604.3425">
					<stop  offset="0" style="stop-color:#4F52FF"/>
					<stop  offset="1" style="stop-color:#4042E2"/>
				</linearGradient>
				<path style="fill:url(#SVGID_00000052070018410641053960000010181803915076512396_);" d="M2545.404,2165.098l3.232,28.1
					c0,0-24.195,204.889,45.454,529.669c0,0,145.734,26.14,269.711-76.116c0,0-52.098-355.784-61.651-370.063
					c-47.579-71.121-79.275-86.583-79.275-86.583l-1.43-30.7C2721.446,2159.406,2588.844,2183.381,2545.404,2165.098z"/>
				
					<linearGradient id="SVGID_00000129912888636276853100000000736720880426652551_" gradientUnits="userSpaceOnUse" x1="-1498.693" y1="1853.5781" x2="-1465.1176" y2="1684.5807" gradientTransform="matrix(-1 0 0 1 1197.9395 0)">
					<stop  offset="0" style="stop-color:#A22B25"/>
					<stop  offset="1" style="stop-color:#C0423C"/>
				</linearGradient>
				<path style="fill:url(#SVGID_00000129912888636276853100000000736720880426652551_);" d="M2652.22,1743.527l-7.771,91.368
					c-1.069,12.565,8.842,23.354,21.452,23.354h69.255l-23.048-175.116L2652.22,1743.527z"/>
				
					<linearGradient id="SVGID_00000138563753855308123800000000253595840722088885_" gradientUnits="userSpaceOnUse" x1="1160.3778" y1="2202.7563" x2="1915.8475" y2="2254.1284" gradientTransform="matrix(0.9852 -0.1712 0.1712 0.9852 1254.0865 -323.8918)">
					<stop  offset="0" style="stop-color:#A22B25"/>
					<stop  offset="1" style="stop-color:#C0423C"/>
				</linearGradient>
				<path style="fill:url(#SVGID_00000138563753855308123800000000253595840722088885_);" d="M2667.01,1570.695
					c-2.927,2.614-97.512,62.431-57.238,164.419c2.38,6.026,7.472,10.601,13.754,12.188c16.113,4.072,50.289,9.9,88.115-0.703
					c52.439-14.699,71.235-113.93,65.038-140.779S2696.021,1544.787,2667.01,1570.695z"/>
				<g>
					
						<linearGradient id="SVGID_00000071545994438874751330000005227823691833068986_" gradientUnits="userSpaceOnUse" x1="-1862.9146" y1="1830.249" x2="-1411.9642" y2="1830.249" gradientTransform="matrix(-1 0 0 1 1197.9395 0)">
						<stop  offset="0" style="stop-color:#09005D"/>
						<stop  offset="1" style="stop-color:#1A0F91"/>
					</linearGradient>
					<path style="fill:url(#SVGID_00000071545994438874751330000005227823691833068986_);" d="M2794.487,1648.567
						c11.501,73.337,19.997,70.384,46.986,103.011c43.744,52.881,106.321-1.632,167.157,48.48
						c43.919,36.176,65.079,128.73,44.004,203.457c-29.192,103.498-148.438,156.251-200.135,124.728
						c-49.408-30.127-34.064-80.086-100.541-114.957c-28.222-14.804-55.092-45.522-71.994-67.464
						c-29.588-38.411-18.378-91.394-15.303-120.11c6.675-62.309,27.818-93.223,20.146-120.607
						c-14.921-53.264-68.721-54.322-74.521-91.925c-5.281-34.242,45.166-99.146,92.639-88.919
						C2776.377,1540.085,2789.364,1615.895,2794.487,1648.567z"/>
					<path style="opacity:0.6;fill:#FFFFFF;" d="M3025.127,1978.839c1.012,0.174,2.044-0.374,2.475-1.387
						c18.964-44.805,20.603-83.947,4.866-116.341c-26.114-53.761-92.069-69.996-92.733-70.152c-1.021-0.36-2.439,0.492-2.736,1.75
						c-0.293,1.253,0.453,2.505,1.674,2.794c0.644,0.153,64.596,15.931,89.747,67.756c15.097,31.101,13.423,68.909-4.977,112.369
						c-0.501,1.185,0.022,2.556,1.171,3.059C3024.781,1978.756,3024.957,1978.81,3025.127,1978.839z"/>
					<path style="opacity:0.72;fill:#FFFFFF;" d="M2627.804,1618.02c0.995,1.212,2.06,2.452,3.231,3.749
						c11.505,12.698,28.195,23.715,44.343,34.368c25.516,16.83,49.593,32.722,47.039,52.02c-0.059,0.449-0.612,0.551-1.232,0.224
						c-0.13-0.069-0.246-0.146-0.355-0.233c-0.431-0.34-0.714-0.814-0.667-1.169c2.375-17.943-19.771-32.546-45.379-49.442
						c-16.388-10.815-33.324-21.991-45.219-35.121c-1.089-1.205-2.095-2.369-3.043-3.508
						C2626.951,1618.613,2627.378,1618.318,2627.804,1618.02z"/>
				</g>
			</g>
		</g>
	</g>
</g>
</svg>
